<svg width="16" height="16" viewBox="0 0 16 16" fill="none" xmlns="http://www.w3.org/2000/svg">
<path d="M8.00003 5.50001C7.50558 5.50001 7.02223 5.64663 6.61111 5.92133C6.19999 6.19604 5.87955 6.58648 5.69033 7.0433C5.50112 7.50011 5.45161 8.00278 5.54807 8.48773C5.64453 8.97269 5.88264 9.41814 6.23227 9.76777C6.5819 10.1174 7.02736 10.3555 7.51231 10.452C7.99726 10.5484 8.49993 10.4989 8.95674 10.3097C9.41356 10.1205 9.804 9.80006 10.0787 9.38893C10.3534 8.97781 10.5 8.49446 10.5 8.00001C10.5 7.33697 10.2366 6.70108 9.7678 6.23224C9.29896 5.7634 8.66307 5.50001 8.00003 5.50001ZM8.00003 9.50001C7.70336 9.50001 7.41335 9.41203 7.16668 9.24721C6.92 9.08239 6.72775 8.84812 6.61421 8.57403C6.50068 8.29994 6.47098 7.99834 6.52886 7.70737C6.58673 7.4164 6.72959 7.14913 6.93937 6.93935C7.14915 6.72957 7.41643 6.58671 7.7074 6.52883C7.99837 6.47095 8.29997 6.50066 8.57406 6.61419C8.84815 6.72772 9.08242 6.91998 9.24724 7.16665C9.41206 7.41333 9.50003 7.70334 9.50003 8.00001C9.50003 8.39783 9.342 8.77936 9.06069 9.06067C8.77939 9.34197 8.39786 9.50001 8.00003 9.50001ZM12.6069 9.94626C12.3921 10.4541 12.0947 10.9229 11.7269 11.3338C11.6378 11.4301 11.5145 11.4876 11.3834 11.4938C11.2523 11.5 11.124 11.4545 11.0262 11.3669C10.9284 11.2794 10.869 11.157 10.8607 11.026C10.8524 10.895 10.8959 10.766 10.9819 10.6669C11.6384 9.93385 12.0015 8.98438 12.0015 8.00032C12.0015 7.01626 11.6384 6.06679 10.9819 5.33376C10.9369 5.28504 10.902 5.22786 10.8793 5.16554C10.8566 5.10322 10.8465 5.037 10.8497 4.97074C10.8528 4.90449 10.8691 4.83952 10.8976 4.77962C10.9261 4.71972 10.9662 4.66609 11.0156 4.62185C11.065 4.57761 11.1228 4.54365 11.1855 4.52194C11.2481 4.50023 11.3145 4.49121 11.3807 4.4954C11.4469 4.49959 11.5116 4.51691 11.571 4.54635C11.6305 4.57579 11.6835 4.61676 11.7269 4.66688C12.3582 5.37334 12.7761 6.2445 12.9319 7.17906C13.0877 8.11362 12.975 9.07321 12.6069 9.94626ZM4.31253 6.44313C4.01752 7.14149 3.92704 7.9093 4.05164 8.6571C4.17623 9.40491 4.51078 10.1019 5.01628 10.6669C5.10224 10.766 5.14577 10.895 5.13748 11.026C5.12919 11.157 5.06974 11.2794 4.97196 11.3669C4.87418 11.4545 4.74591 11.5 4.61483 11.4938C4.48374 11.4876 4.36035 11.4301 4.27128 11.3338C3.4504 10.4175 2.99647 9.23053 2.99647 8.00032C2.99647 6.77011 3.4504 5.58316 4.27128 4.66688C4.35972 4.56784 4.48387 4.50799 4.61644 4.50048C4.749 4.49298 4.87912 4.53845 4.97816 4.62688C5.0772 4.71532 5.13706 4.83947 5.14456 4.97204C5.15206 5.1046 5.10659 5.23472 5.01816 5.33376C4.72316 5.66194 4.48471 6.03683 4.31253 6.44313ZM15.5 8.00001C15.5031 9.96359 14.7332 11.8495 13.3569 13.25C13.3114 13.2987 13.2566 13.3378 13.1957 13.365C13.1348 13.3922 13.0692 13.4069 13.0025 13.4083C12.9359 13.4098 12.8696 13.3979 12.8077 13.3733C12.7457 13.3488 12.6892 13.3121 12.6416 13.2654C12.5941 13.2188 12.5563 13.163 12.5305 13.1016C12.5048 13.0401 12.4916 12.9741 12.4917 12.9074C12.4919 12.8407 12.5054 12.7748 12.5314 12.7134C12.5574 12.652 12.5954 12.5965 12.6432 12.55C13.8349 11.3359 14.5025 9.70253 14.5025 8.00126C14.5025 6.29998 13.8349 4.66666 12.6432 3.45251C12.55 3.35786 12.4983 3.23008 12.4993 3.09728C12.5004 2.96448 12.5541 2.83754 12.6488 2.74438C12.7434 2.65123 12.8712 2.59948 13.004 2.60054C13.1368 2.60159 13.2638 2.65536 13.3569 2.75001C14.7332 4.15053 15.5031 6.03642 15.5 8.00001ZM3.35691 12.5488C3.40295 12.5956 3.43932 12.6511 3.46392 12.712C3.48853 12.7729 3.50089 12.8381 3.50031 12.9038C3.49973 12.9695 3.48622 13.0344 3.46054 13.0949C3.43486 13.1554 3.39752 13.2102 3.35066 13.2563C3.30379 13.3023 3.24832 13.3387 3.1874 13.3633C3.12648 13.3879 3.06131 13.4002 2.99561 13.3997C2.92992 13.3991 2.86498 13.3856 2.8045 13.3599C2.74403 13.3342 2.6892 13.2969 2.64316 13.25C1.26702 11.8491 0.495972 9.96378 0.495972 8.00001C0.495972 6.03623 1.26702 4.15096 2.64316 2.75001C2.68869 2.70133 2.7435 2.66224 2.80436 2.63505C2.86522 2.60786 2.9309 2.59311 2.99754 2.59167C3.06418 2.59023 3.13044 2.60213 3.19242 2.62668C3.25439 2.65122 3.31083 2.6879 3.35842 2.73458C3.40601 2.78125 3.44379 2.83697 3.46953 2.89846C3.49528 2.95994 3.50847 3.02595 3.50832 3.09261C3.50818 3.15927 3.49472 3.22523 3.46871 3.2866C3.44271 3.34798 3.4047 3.40354 3.35691 3.45001C2.1652 4.66416 1.49756 6.29748 1.49756 7.99876C1.49756 9.70003 2.1652 11.3334 3.35691 12.5475V12.5488Z" fill="#1C1C1C"/>
</svg>
