<svg width="28" height="29" viewBox="0 0 28 29" fill="none" xmlns="http://www.w3.org/2000/svg">
<path d="M10.875 8.25V20.75H7.125C6.95924 20.75 6.80027 20.6842 6.68306 20.5669C6.56585 20.4497 6.5 20.2908 6.5 20.125V8.875C6.5 8.70924 6.56585 8.55027 6.68306 8.43306C6.80027 8.31585 6.95924 8.25 7.125 8.25H10.875Z" fill="#1C1C1C" fill-opacity="0.1"/>
<path d="M20.875 7.625H7.125C6.79348 7.625 6.47554 7.7567 6.24112 7.99112C6.0067 8.22554 5.875 8.54348 5.875 8.875V20.125C5.875 20.4565 6.0067 20.7745 6.24112 21.0089C6.47554 21.2433 6.79348 21.375 7.125 21.375H20.875C21.2065 21.375 21.5245 21.2433 21.7589 21.0089C21.9933 20.7745 22.125 20.4565 22.125 20.125V8.875C22.125 8.54348 21.9933 8.22554 21.7589 7.99112C21.5245 7.7567 21.2065 7.625 20.875 7.625ZM7.125 16.375H8.375C8.54076 16.375 8.69973 16.3092 8.81694 16.1919C8.93415 16.0747 9 15.9158 9 15.75C9 15.5842 8.93415 15.4253 8.81694 15.3081C8.69973 15.1908 8.54076 15.125 8.375 15.125H7.125V13.875H8.375C8.54076 13.875 8.69973 13.8092 8.81694 13.6919C8.93415 13.5747 9 13.4158 9 13.25C9 13.0842 8.93415 12.9253 8.81694 12.8081C8.69973 12.6908 8.54076 12.625 8.375 12.625H7.125V11.375H8.375C8.54076 11.375 8.69973 11.3092 8.81694 11.1919C8.93415 11.0747 9 10.9158 9 10.75C9 10.5842 8.93415 10.4253 8.81694 10.3081C8.69973 10.1908 8.54076 10.125 8.375 10.125H7.125V8.875H10.25V20.125H7.125V16.375ZM20.875 20.125H11.5V8.875H20.875V20.125Z" fill="#1C1C1C"/>
</svg>
