<svg width="16" height="16" viewBox="0 0 16 16" fill="none" xmlns="http://www.w3.org/2000/svg">
<path d="M8.33351 9.83333H6.66684C6.39351 9.83333 6.16684 9.60667 6.16684 9.33333C6.16684 9.06 6.39351 8.83333 6.66684 8.83333H8.33351C10.0802 8.83333 11.5002 7.41333 11.5002 5.66667C11.5002 3.92 10.0802 2.5 8.33351 2.5H5.00018C3.25351 2.5 1.83351 3.92 1.83351 5.66667C1.83351 6.4 2.09351 7.11333 2.56018 7.67999C2.73351 7.89333 2.70684 8.20666 2.49351 8.38666C2.28018 8.55999 1.96684 8.53334 1.78684 8.32001C1.16684 7.57334 0.826843 6.63333 0.826843 5.66667C0.826843 3.36667 2.69351 1.5 4.99351 1.5H8.32684C10.6268 1.5 12.4935 3.36667 12.4935 5.66667C12.4935 7.96667 10.6335 9.83333 8.33351 9.83333Z" fill="#292D32"/>
<path d="M11 14.5H7.66667C5.36667 14.5 3.5 12.6333 3.5 10.3333C3.5 8.03332 5.36667 6.16666 7.66667 6.16666H9.33333C9.60667 6.16666 9.83333 6.39332 9.83333 6.66666C9.83333 6.93999 9.60667 7.16666 9.33333 7.16666H7.66667C5.92 7.16666 4.5 8.58666 4.5 10.3333C4.5 12.08 5.92 13.5 7.66667 13.5H11C12.7467 13.5 14.1667 12.08 14.1667 10.3333C14.1667 9.59999 13.9067 8.88666 13.44 8.32C13.2667 8.10666 13.2933 7.79333 13.5067 7.61333C13.72 7.43333 14.0333 7.46665 14.2133 7.67998C14.8333 8.42665 15.1733 9.36666 15.1733 10.3333C15.1667 12.6333 13.3 14.5 11 14.5Z" fill="#292D32"/>
</svg>
