<svg width="16" height="16" viewBox="0 0 16 16" fill="none" xmlns="http://www.w3.org/2000/svg">
<path d="M8.99996 3.83333H6.98664C6.17331 3.83333 5.49997 3.17332 5.48664 2.35999L5.46664 1.34001C5.45997 1.06667 5.67996 0.833327 5.95329 0.82666C5.95996 0.82666 5.95997 0.82666 5.96664 0.82666C6.23997 0.82666 6.45997 1.04665 6.46664 1.31331L6.48664 2.33333C6.49331 2.6 6.71997 2.82666 6.98664 2.82666H8.99996C9.27996 2.82666 9.49996 2.59999 9.49996 2.32666V1.33333C9.49996 1.06 9.72663 0.833333 9.99996 0.833333C10.2733 0.833333 10.5 1.06 10.5 1.33333V2.33333C10.5 3.16 9.82663 3.83333 8.99996 3.83333Z" fill="#292D32"/>
<path d="M11.3333 14.5C11.2066 14.5 11.08 14.4533 10.98 14.3533L9.64665 13.02C9.45331 12.8267 9.45331 12.5066 9.64665 12.3133L10.98 10.98C11.1733 10.7866 11.4933 10.7866 11.6866 10.98C11.88 11.1733 11.88 11.4933 11.6866 11.6867L10.7066 12.6666L11.6866 13.6466C11.88 13.84 11.88 14.16 11.6866 14.3533C11.5866 14.4533 11.46 14.5 11.3333 14.5Z" fill="#292D32"/>
<path d="M13.3333 14.5C13.2066 14.5 13.08 14.4533 12.98 14.3533C12.7866 14.16 12.7866 13.84 12.98 13.6466L13.96 12.6666L12.98 11.6867C12.7866 11.4933 12.7866 11.1733 12.98 10.98C13.1733 10.7866 13.4933 10.7866 13.6866 10.98L15.02 12.3133C15.2133 12.5066 15.2133 12.8267 15.02 13.02L13.6866 14.3533C13.5866 14.4533 13.46 14.5 13.3333 14.5Z" fill="#292D32"/>
<path d="M8.66667 15.1666H5.33333C2.9 15.1666 1.5 13.7666 1.5 11.3333V4.66665C1.5 2.23331 2.9 0.833313 5.33333 0.833313H10.6667C13.1 0.833313 14.5 2.23331 14.5 4.66665V9.33331C14.5 9.60665 14.2733 9.83331 14 9.83331C13.7267 9.83331 13.5 9.60665 13.5 9.33331V4.66665C13.5 2.75998 12.5733 1.83331 10.6667 1.83331H5.33333C3.42667 1.83331 2.5 2.75998 2.5 4.66665V11.3333C2.5 13.24 3.42667 14.1666 5.33333 14.1666H8.66667C8.94 14.1666 9.16667 14.3933 9.16667 14.6666C9.16667 14.94 8.94 15.1666 8.66667 15.1666Z" fill="#292D32"/>
</svg>
