<svg width="16" height="16" viewBox="0 0 16 16" fill="none" xmlns="http://www.w3.org/2000/svg">
<path d="M7.33331 13.8333C3.74665 13.8333 0.833313 10.92 0.833313 7.33331C0.833313 3.74665 3.74665 0.833313 7.33331 0.833313C7.60665 0.833313 7.83331 1.05998 7.83331 1.33331C7.83331 1.60665 7.60665 1.83331 7.33331 1.83331C4.29998 1.83331 1.83331 4.29998 1.83331 7.33331C1.83331 10.3666 4.29998 12.8333 7.33331 12.8333C10.3666 12.8333 12.8333 10.3666 12.8333 7.33331C12.8333 7.05998 13.06 6.83331 13.3333 6.83331C13.6066 6.83331 13.8333 7.05998 13.8333 7.33331C13.8333 10.92 10.92 13.8333 7.33331 13.8333Z" fill="#292D32"/>
<path d="M13.3333 3.83331H9.33331C9.05998 3.83331 8.83331 3.60665 8.83331 3.33331C8.83331 3.05998 9.05998 2.83331 9.33331 2.83331H13.3333C13.6066 2.83331 13.8333 3.05998 13.8333 3.33331C13.8333 3.60665 13.6066 3.83331 13.3333 3.83331Z" fill="#292D32"/>
<path d="M11.3333 5.83331H9.33331C9.05998 5.83331 8.83331 5.60665 8.83331 5.33331C8.83331 5.05998 9.05998 4.83331 9.33331 4.83331H11.3333C11.6066 4.83331 11.8333 5.05998 11.8333 5.33331C11.8333 5.60665 11.6066 5.83331 11.3333 5.83331Z" fill="#292D32"/>
<path d="M13.4401 15.1933C13.3867 15.1933 13.3334 15.1867 13.2867 15.18C12.9734 15.14 12.4067 14.9267 12.0867 13.9733C11.9201 13.4733 11.9801 12.9733 12.2534 12.5933C12.5267 12.2133 12.9867 12 13.5134 12C14.1934 12 14.7267 12.26 14.9667 12.72C15.2067 13.18 15.1401 13.7667 14.7601 14.3333C14.2867 15.0467 13.7734 15.1933 13.4401 15.1933ZM13.0401 13.66C13.1534 14.0067 13.3134 14.18 13.4201 14.1933C13.5267 14.2067 13.7267 14.08 13.9334 13.78C14.1267 13.4933 14.1401 13.2867 14.0934 13.1933C14.0467 13.1 13.8601 13 13.5134 13C13.3067 13 13.1534 13.0667 13.0667 13.18C12.9867 13.2933 12.9734 13.4667 13.0401 13.66Z" fill="#292D32"/>
</svg>
