<svg width="16" height="16" viewBox="0 0 16 16" fill="none" xmlns="http://www.w3.org/2000/svg">
<path d="M7.99988 15.1667C7.83988 15.1667 7.67988 15.1467 7.52655 15.1C4.06655 14.1467 1.55988 10.9134 1.55988 7.40669V4.48001C1.55988 3.73335 2.09988 2.92671 2.79321 2.64005L6.50655 1.12003C7.47322 0.726694 8.53321 0.726694 9.49321 1.12003L13.2065 2.64005C13.8999 2.92671 14.4399 3.73335 14.4399 4.48001V7.40669C14.4399 10.9067 11.9265 14.14 8.47321 15.1C8.31987 15.1467 8.15988 15.1667 7.99988 15.1667ZM7.99988 1.83337C7.61988 1.83337 7.24654 1.90671 6.88654 2.05338L3.17322 3.57336C2.85322 3.70669 2.55988 4.14002 2.55988 4.48669V7.41336C2.55988 10.4734 4.75988 13.3 7.79321 14.14C7.92655 14.18 8.07321 14.18 8.20654 14.14C11.2399 13.3 13.4399 10.4734 13.4399 7.41336V4.48669C13.4399 4.14002 13.1465 3.70669 12.8265 3.57336L9.11322 2.05338C8.75322 1.90671 8.37988 1.83337 7.99988 1.83337Z" fill="#292D32"/>
</svg>
