<svg width="16" height="16" viewBox="0 0 16 16" fill="none" xmlns="http://www.w3.org/2000/svg">
<path d="M7.99994 15.1733C7.27327 15.1733 6.55328 14.96 5.98661 14.54L3.11993 12.4C2.35993 11.8333 1.7666 10.6533 1.7666 9.70667V4.75334C1.7666 3.72667 2.51995 2.63334 3.48661 2.27334L6.81327 1.02667C7.47327 0.780008 8.51328 0.780008 9.17328 1.02667L12.5066 2.27334C13.4733 2.63334 14.2266 3.72667 14.2266 4.75334V9.70667C14.2266 10.6533 13.6333 11.8333 12.8733 12.4L10.0066 14.54C9.44661 14.96 8.72661 15.1733 7.99994 15.1733ZM7.16661 1.96L3.83995 3.20667C3.26661 3.42 2.7666 4.14001 2.7666 4.75334V9.70667C2.7666 10.34 3.21328 11.2267 3.71328 11.6L6.57994 13.74C7.3466 14.3133 8.6466 14.3133 9.41327 13.74L12.2799 11.6C12.7866 11.22 13.2266 10.3333 13.2266 9.70667V4.75334C13.2266 4.14667 12.7266 3.42667 12.1533 3.20667L8.8266 1.96C8.3866 1.79334 7.61327 1.79334 7.16661 1.96Z" fill="#292D32"/>
<path d="M7.99996 7.78004C7.98663 7.78004 7.97329 7.78004 7.95329 7.78004C6.98662 7.75337 6.27997 7.01337 6.27997 6.11337C6.27997 5.19337 7.03329 4.44003 7.95329 4.44003C8.87329 4.44003 9.62663 5.19337 9.62663 6.11337C9.61996 7.02004 8.91329 7.75336 8.01329 7.78669C8.00662 7.78003 8.00663 7.78004 7.99996 7.78004ZM7.95329 5.44003C7.57995 5.44003 7.27997 5.74004 7.27997 6.11337C7.27997 6.48004 7.56664 6.77336 7.92664 6.78669C7.92664 6.78669 7.95996 6.78669 7.99996 6.78669C8.35329 6.76669 8.62663 6.47337 8.62663 6.11337C8.63329 5.74004 8.32662 5.44003 7.95329 5.44003Z" fill="#292D32"/>
<path d="M7.9999 11.5667C7.42656 11.5667 6.84657 11.4134 6.3999 11.1134C5.95324 10.82 5.69989 10.3867 5.69989 9.9267C5.69989 9.4667 5.95324 9.03336 6.3999 8.73336C7.2999 8.13336 8.70656 8.14003 9.59989 8.73336C10.0466 9.0267 10.2999 9.46003 10.2999 9.92003C10.2999 10.38 10.0466 10.8134 9.59989 11.1134C9.15323 11.4134 8.57323 11.5667 7.9999 11.5667ZM6.95323 9.56002C6.78656 9.66669 6.69322 9.80003 6.69989 9.92003C6.69989 10.04 6.79323 10.1734 6.95323 10.28C7.51323 10.6534 8.48657 10.6534 9.04657 10.28C9.21324 10.1734 9.30656 10.04 9.30656 9.92003C9.30656 9.80003 9.21322 9.66669 9.05322 9.56002C8.49322 9.19336 7.51323 9.19336 6.95323 9.56002Z" fill="#292D32"/>
</svg>
