<svg width="16" height="16" viewBox="0 0 16 16" fill="none" xmlns="http://www.w3.org/2000/svg">
<path d="M8 10.5C6.62 10.5 5.5 9.38 5.5 8C5.5 6.62 6.62 5.5 8 5.5C9.38 5.5 10.5 6.62 10.5 8C10.5 9.38 9.38 10.5 8 10.5ZM8 6.5C7.17333 6.5 6.5 7.17333 6.5 8C6.5 8.82667 7.17333 9.5 8 9.5C8.82667 9.5 9.5 8.82667 9.5 8C9.5 7.17333 8.82667 6.5 8 6.5Z" fill="#292D32"/>
<path d="M10.14 14.7933C9.99998 14.7933 9.85998 14.7733 9.71998 14.74C9.30665 14.6267 8.95998 14.3667 8.73998 14L8.65998 13.8667C8.26665 13.1867 7.72665 13.1867 7.33331 13.8667L7.25998 13.9933C7.03998 14.3667 6.69331 14.6333 6.27998 14.74C5.85998 14.8533 5.42665 14.7933 5.05998 14.5733L3.91331 13.9133C3.50665 13.68 3.21331 13.3 3.08665 12.84C2.96665 12.38 3.02665 11.9067 3.25998 11.5C3.45331 11.16 3.50665 10.8533 3.39331 10.66C3.27998 10.4667 2.99331 10.3533 2.59998 10.3533C1.62665 10.3533 0.833313 9.55999 0.833313 8.58665V7.41332C0.833313 6.43999 1.62665 5.64665 2.59998 5.64665C2.99331 5.64665 3.27998 5.53332 3.39331 5.33999C3.50665 5.14665 3.45998 4.83999 3.25998 4.49999C3.02665 4.09332 2.96665 3.61332 3.08665 3.15999C3.20665 2.69999 3.49998 2.31999 3.91331 2.08665L5.06665 1.42665C5.81998 0.979988 6.81331 1.23999 7.26665 2.00665L7.34665 2.13999C7.73998 2.81999 8.27998 2.81999 8.67331 2.13999L8.74665 2.01332C9.19998 1.23999 10.1933 0.979988 10.9533 1.43332L12.1 2.09332C12.5066 2.32665 12.8 2.70665 12.9266 3.16665C13.0466 3.62665 12.9866 4.09999 12.7533 4.50665C12.56 4.84665 12.5066 5.15332 12.62 5.34665C12.7333 5.53999 13.02 5.65332 13.4133 5.65332C14.3866 5.65332 15.18 6.44665 15.18 7.41999V8.59332C15.18 9.56665 14.3866 10.36 13.4133 10.36C13.02 10.36 12.7333 10.4733 12.62 10.6667C12.5066 10.86 12.5533 11.1667 12.7533 11.5067C12.9866 11.9133 13.0533 12.3933 12.9266 12.8467C12.8066 13.3067 12.5133 13.6867 12.1 13.92L10.9466 14.58C10.6933 14.72 10.42 14.7933 10.14 14.7933ZM7.99998 12.3267C8.59331 12.3267 9.14665 12.7 9.52665 13.36L9.59998 13.4867C9.67998 13.6267 9.81331 13.7267 9.97331 13.7667C10.1333 13.8067 10.2933 13.7867 10.4266 13.7067L11.58 13.04C11.7533 12.94 11.8866 12.7733 11.94 12.5733C11.9933 12.3733 11.9666 12.1667 11.8666 11.9933C11.4866 11.34 11.44 10.6667 11.7333 10.1533C12.0266 9.63999 12.6333 9.34665 13.3933 9.34665C13.82 9.34665 14.16 9.00665 14.16 8.57999V7.40665C14.16 6.98665 13.82 6.63999 13.3933 6.63999C12.6333 6.63999 12.0266 6.34665 11.7333 5.83332C11.44 5.31999 11.4866 4.64665 11.8666 3.99332C11.9666 3.81999 11.9933 3.61332 11.94 3.41332C11.8866 3.21332 11.76 3.05332 11.5866 2.94665L10.4333 2.28665C10.1466 2.11332 9.76665 2.21332 9.59331 2.50665L9.51998 2.63332C9.13998 3.29332 8.58665 3.66665 7.99331 3.66665C7.39998 3.66665 6.84665 3.29332 6.46665 2.63332L6.39331 2.49999C6.22665 2.21999 5.85331 2.11999 5.56665 2.28665L4.41331 2.95332C4.23998 3.05332 4.10665 3.21999 4.05331 3.41999C3.99998 3.61999 4.02665 3.82665 4.12665 3.99999C4.50665 4.65332 4.55331 5.32665 4.25998 5.83999C3.96665 6.35332 3.35998 6.64665 2.59998 6.64665C2.17331 6.64665 1.83331 6.98665 1.83331 7.41332V8.58665C1.83331 9.00665 2.17331 9.35332 2.59998 9.35332C3.35998 9.35332 3.96665 9.64665 4.25998 10.16C4.55331 10.6733 4.50665 11.3467 4.12665 12C4.02665 12.1733 3.99998 12.38 4.05331 12.58C4.10665 12.78 4.23331 12.94 4.40665 13.0467L5.55998 13.7067C5.69998 13.7933 5.86665 13.8133 6.01998 13.7733C6.17998 13.7333 6.31331 13.6267 6.39998 13.4867L6.47331 13.36C6.85331 12.7067 7.40665 12.3267 7.99998 12.3267Z" fill="#292D32"/>
</svg>
