<svg width="16" height="16" viewBox="0 0 16 16" fill="none" xmlns="http://www.w3.org/2000/svg">
<path d="M14 13.5H7.33331C7.05998 13.5 6.83331 13.2733 6.83331 13C6.83331 12.7267 7.05998 12.5 7.33331 12.5H14C14.2733 12.5 14.5 12.7267 14.5 13C14.5 13.2733 14.2733 13.5 14 13.5Z" fill="#292D32"/>
<path d="M14 8.83334H7.33331C7.05998 8.83334 6.83331 8.60668 6.83331 8.33334C6.83331 8.06001 7.05998 7.83334 7.33331 7.83334H14C14.2733 7.83334 14.5 8.06001 14.5 8.33334C14.5 8.60668 14.2733 8.83334 14 8.83334Z" fill="#292D32"/>
<path d="M14 4.16666H7.33331C7.05998 4.16666 6.83331 3.93999 6.83331 3.66666C6.83331 3.39332 7.05998 3.16666 7.33331 3.16666H14C14.2733 3.16666 14.5 3.39332 14.5 3.66666C14.5 3.93999 14.2733 4.16666 14 4.16666Z" fill="#292D32"/>
<path d="M2.66665 4.83332C2.53998 4.83332 2.41331 4.78666 2.31331 4.68666L1.64665 4.01999C1.45331 3.82666 1.45331 3.50666 1.64665 3.31332C1.83998 3.11999 2.15998 3.11999 2.35331 3.31332L2.66665 3.62666L4.31331 1.97999C4.50665 1.78666 4.82665 1.78666 5.01998 1.97999C5.21332 2.17332 5.21332 2.49332 5.01998 2.68666L3.01998 4.68666C2.91998 4.78666 2.79331 4.83332 2.66665 4.83332Z" fill="#292D32"/>
<path d="M2.66665 9.50001C2.53998 9.50001 2.41331 9.45334 2.31331 9.35334L1.64665 8.68668C1.45331 8.49334 1.45331 8.17334 1.64665 7.98001C1.83998 7.78668 2.15998 7.78668 2.35331 7.98001L2.66665 8.29334L4.31331 6.64668C4.50665 6.45335 4.82665 6.45335 5.01998 6.64668C5.21332 6.84001 5.21332 7.16001 5.01998 7.35334L3.01998 9.35334C2.91998 9.45334 2.79331 9.50001 2.66665 9.50001Z" fill="#292D32"/>
<path d="M2.66665 14.1667C2.53998 14.1667 2.41331 14.12 2.31331 14.02L1.64665 13.3533C1.45331 13.16 1.45331 12.84 1.64665 12.6467C1.83998 12.4533 2.15998 12.4533 2.35331 12.6467L2.66665 12.96L4.31331 11.3133C4.50665 11.12 4.82665 11.12 5.01998 11.3133C5.21332 11.5067 5.21332 11.8267 5.01998 12.02L3.01998 14.02C2.91998 14.12 2.79331 14.1667 2.66665 14.1667Z" fill="#292D32"/>
</svg>
