<svg width="10" height="16" viewBox="0 0 10 16" fill="none" xmlns="http://www.w3.org/2000/svg">
<path d="M7.16002 15.1666H2.84002C1.58002 15.1666 0.660024 14.64 0.306691 13.7333C-0.0599757 12.7866 0.280024 11.6133 1.16002 10.82L4.25336 7.99998L1.16002 5.17998C0.280024 4.38665 -0.0599757 3.21331 0.306691 2.26665C0.660024 1.35331 1.58002 0.833313 2.84002 0.833313H7.16002C8.42002 0.833313 9.34002 1.35998 9.69336 2.26665C10.06 3.21331 9.72003 4.38665 8.84002 5.17998L5.74669 7.99998L8.84669 10.82C9.72003 11.6133 10.0667 12.7866 9.70002 13.7333C9.34002 14.64 8.42002 15.1666 7.16002 15.1666ZM5.00002 8.67331L1.83336 11.5533C1.27336 12.0666 1.02669 12.8133 1.24002 13.3666C1.44002 13.88 2.00669 14.1666 2.84002 14.1666H7.16002C7.99336 14.1666 8.56002 13.8866 8.76002 13.3666C8.97336 12.8133 8.73336 12.0666 8.16669 11.5533L5.00002 8.67331ZM2.84002 1.83331C2.00669 1.83331 1.44002 2.11331 1.24002 2.63331C1.02669 3.18665 1.26669 3.93331 1.83336 4.44665L5.00002 7.32665L8.16669 4.44665C8.72669 3.93331 8.97336 3.18665 8.76002 2.63331C8.56002 2.11998 7.99336 1.83331 7.16002 1.83331H2.84002Z" fill="#292D32"/>
</svg>
